<?xml version="1.0" encoding="UTF-8" standalone="no"?>
<!-- Created with Inkscape (http://www.inkscape.org/) -->
<svg
   xmlns:dc="http://purl.org/dc/elements/1.1/"
   xmlns:cc="http://creativecommons.org/ns#"
   xmlns:rdf="http://www.w3.org/1999/02/22-rdf-syntax-ns#"
   xmlns:svg="http://www.w3.org/2000/svg"
   xmlns="http://www.w3.org/2000/svg"
   xmlns:sodipodi="http://sodipodi.sourceforge.net/DTD/sodipodi-0.dtd"
   xmlns:inkscape="http://www.inkscape.org/namespaces/inkscape"
   width="210mm"
   height="297mm"
   id="svg2416"
   sodipodi:version="0.32"
   inkscape:version="0.46"
   sodipodi:docname="Metallica.svg"
   inkscape:output_extension="org.inkscape.output.svg.inkscape">
  <defs
     id="defs2418">
    <inkscape:perspective
       sodipodi:type="inkscape:persp3d"
       inkscape:vp_x="0 : 526.18109 : 1"
       inkscape:vp_y="0 : 1000 : 0"
       inkscape:vp_z="744.09448 : 526.18109 : 1"
       inkscape:persp3d-origin="372.04724 : 350.78739 : 1"
       id="perspective2424" />
  </defs>
  <sodipodi:namedview
     id="base"
     pagecolor="#ffffff"
     bordercolor="#666666"
     borderopacity="1.0"
     inkscape:pageopacity="0.0"
     inkscape:pageshadow="2"
     inkscape:zoom="1.4"
     inkscape:cx="370.89118"
     inkscape:cy="499.79325"
     inkscape:document-units="px"
     inkscape:current-layer="layer1"
     showgrid="false"
     inkscape:window-width="1920"
     inkscape:window-height="1144"
     inkscape:window-x="-4"
     inkscape:window-y="-4" />
  <metadata
     id="metadata2421">
    <rdf:RDF>
      <cc:Work
         rdf:about="">
        <dc:format>image/svg+xml</dc:format>
        <dc:type
           rdf:resource="http://purl.org/dc/dcmitype/StillImage" />
      </cc:Work>
    </rdf:RDF>
  </metadata>
  <g
     inkscape:label="Calque 1"
     inkscape:groupmode="layer"
     id="layer1">
    <path
       style="fill:none;fill-rule:evenodd;stroke:#000000;stroke-width:1px;stroke-linecap:butt;stroke-linejoin:miter;stroke-opacity:1"
       d="M 294.28571,318.07647 C 301.17077,315.32245 285.21806,330.05578 279.28571,334.50504 C 258.80656,349.86441 246.76723,382.85069 220.71429,400.21933 C 212.89972,405.42904 197.70837,427.99312 206.42857,424.50504 C 212.60908,422.03284 218.1485,417.4414 225,414.50504 C 230.05004,412.34074 234.39732,410.87781 240,408.07647 C 247.8918,404.13057 260.54157,403.10525 269.28571,401.6479 C 277.5858,400.26455 284.61664,394.69672 292.14286,390.93361 C 296.44968,388.7802 282.67232,393.07647 277.85714,393.07647 C 275.07405,393.07647 268.46224,393.79075 267.85714,393.79075 C 264.13036,393.79075 274.52381,390.45742 277.85714,388.79075 C 282.38217,386.52824 281.25351,382.52319 282.14286,378.07647 C 283.00724,373.75455 283.25896,370.12998 285,366.6479 C 287.28953,362.06883 291.37338,360.3297 293.57143,355.93361 C 295.8921,351.29227 300.23657,366.48713 301.42857,368.07647 C 304.15785,371.71551 299.64065,357.72153 302.85714,354.50504 C 308.00644,349.35574 309.07952,361.48956 310,363.79075 C 311.82368,368.34996 312.41343,370.76047 312.85714,371.6479 C 314.69526,375.32414 320.88984,369.50504 325,369.50504 C 333.28644,369.50504 328.57143,357.92742 328.57143,347.36218 C 328.57143,342.38046 325,338.50378 325,332.36218 C 325,325.0202 327.26738,320.311 328.57143,313.79075 C 329.26641,310.31583 322.00301,311.6479 319.28571,311.6479 C 312.58862,311.6479 313.57143,312.92924 313.57143,319.50504 C 313.57143,324.49401 314.48424,326.51896 309.28571,325.21933 C 304.49987,324.02287 305.23815,319.02906 304.28571,315.21933 C 302.83813,309.42899 300.72426,307.32229 302.14286,301.6479 C 303.17155,297.53312 303.57143,293.03878 303.57143,288.79075 C 303.57143,278.18303 283.06521,297.91002 279.28571,300.93361 C 277.68636,302.21309 275.95238,303.31456 274.28571,304.50504 C 268.53164,308.61509 262.9093,316.44245 258.57143,321.6479 C 254.90359,326.0493 252.01789,330.63895 247.14286,333.07647 C 244.43367,334.43106 241.19142,339.18601 239.28571,342.36218 C 237.24931,345.7562 231.13349,348.50738 238.57143,346.6479 C 242.31777,345.71131 243.2924,343.79075 247.14286,343.79075 C 251.05071,343.79075 260.22085,338.22967 262.85714,336.6479 C 269.10311,332.90032 273.20226,337.01706 277.85714,332.36218 C 278.80952,331.4098 279.7619,330.45742 280.71429,329.50504 C 283.97386,326.24547 283.18368,323.88769 289.28571,322.36218 C 297.70811,320.25658 291.84358,317.70237 297.85714,325.21933"
       id="path2451" />
    <path
       style="fill:none;fill-rule:evenodd;stroke:#000000;stroke-width:1px;stroke-linecap:butt;stroke-linejoin:miter;stroke-opacity:1"
       d="M 344.28571,318.79075 C 347.64893,317.94995 341.42857,325.32404 341.42857,328.79075 C 341.42857,340.16281 337.01605,354.05561 342.85714,363.79075 C 344.52421,366.5692 373.65065,366.6479 377.14286,366.6479 C 383.19728,366.6479 380.71429,363.26695 380.71429,356.6479 C 380.71429,353.23431 370.65564,356.6479 367.85714,356.6479 C 363.07977,356.6479 366.21798,348.8434 369.28571,348.07647 C 372.28854,347.32576 375.47619,348.07647 378.57143,348.07647 C 378.76402,348.07647 374.40651,342.39238 371.42857,341.6479 C 367.09622,340.56481 369.71134,334.36807 370.71429,332.36218 C 371.56071,330.66934 378.90129,331.6479 380.71429,331.6479 C 383.34413,331.6479 380.91282,326.36953 381.42857,323.79075 C 382.02832,320.79201 375.95923,320.93361 373.57143,320.93361 C 368.84991,320.93361 364.59671,321.59606 360,322.36218 C 356.64706,322.92101 352.69361,322.36218 349.28571,322.36218 C 348.3043,322.36218 345.43383,319.36481 344.28571,318.79075 z"
       id="path2453" />
    <path
       style="fill:none;fill-rule:evenodd;stroke:#000000;stroke-width:1px;stroke-linecap:butt;stroke-linejoin:miter;stroke-opacity:1"
       d="M 393.57143,320.93361 C 389.8752,320.93361 392.73234,331.6479 396.42857,331.6479 C 402.24401,331.6479 404.96049,330.06129 406.42857,335.93361 C 407.73127,341.14439 407.14286,347.59122 407.14286,353.07647 C 407.14286,356.91491 408.2901,360.37096 409.28571,362.36218 C 410.78022,365.3512 416.04367,363.88698 419.28571,363.07647 C 419.89956,362.92301 419.28571,348.45618 419.28571,346.6479 C 419.28571,342.99818 419.24261,339.33263 418.57143,336.6479 C 417.30027,331.56326 421.17051,332.36218 425,332.36218 C 428.57143,332.36218 432.14286,332.36218 435.71429,332.36218 C 441.30319,332.36218 440.23628,329.02976 445,326.6479 C 448.21865,325.03857 448.19547,320.93361 445,320.93361 C 441.19048,320.93361 437.38095,320.93361 433.57143,320.93361 C 428.18398,320.93361 422.3486,320.34646 417.14286,321.6479 C 413.26464,322.61745 407.66139,321.6479 403.57143,321.6479 C 400.08342,321.6479 397.03033,321.62539 393.57143,320.93361 z"
       id="path2455" />
    <path
       style="fill:none;fill-rule:evenodd;stroke:#000000;stroke-width:1px;stroke-linecap:butt;stroke-linejoin:miter;stroke-opacity:1"
       d="M 453.57143,323.07647 C 450.11456,323.07647 440.57711,338.3051 438.57143,341.6479 C 437.61483,343.24222 432.37684,345.14544 430.71429,347.36218 C 429.48543,349.00066 430.71429,356.51088 430.71429,358.79075 C 430.71429,360.51245 436.13084,358.79075 438.57143,358.79075 C 441.92856,358.79075 444.72306,357.63912 446.42857,355.93361 C 448.22839,354.13379 449.1119,350.56696 450,348.79075 C 451.89201,345.00674 450,350.31412 450,353.79075 C 450,359.11236 451.4876,358.07647 456.42857,358.07647 C 461.285,358.07647 462.34784,356.44292 463.57143,355.21933 C 465.54315,353.2476 464.28571,345.04284 464.28571,342.36218 C 464.28571,338.55266 464.28571,334.74313 464.28571,330.93361 C 464.28571,326.00936 464.43486,324.65418 462.14286,322.36218 C 461.16204,321.38136 454.18769,322.95322 453.57143,323.07647 z"
       id="path2457" />
    <path
       style="fill:none;fill-rule:evenodd;stroke:#000000;stroke-width:1px;stroke-linecap:butt;stroke-linejoin:miter;stroke-opacity:1"
       d="M 457.14286,333.79075 C 455.26055,331.90845 456.23341,340.93361 453.57143,340.93361 C 450.74399,340.93361 453.57143,338.50756 453.57143,334.50504 C 453.57143,333.29099 455.95238,334.02885 457.14286,333.79075 z"
       id="path2459" />
    <path
       style="fill:none;fill-rule:evenodd;stroke:#000000;stroke-width:1px;stroke-linecap:butt;stroke-linejoin:miter;stroke-opacity:1"
       d="M 470,323.07647 C 470,316.75324 470.71429,334.36695 470.71429,340.93361 C 470.71429,345.33714 472.85714,349.1577 472.85714,353.79075 C 472.85714,356.97448 469.06034,358.79075 475.71429,358.79075 C 481.08286,358.79075 487.85961,358.07647 494.28571,358.07647 C 502.73432,358.07647 499.28571,359.53622 499.28571,352.36218 C 499.28571,346.21226 499.75821,345.93361 493.57143,345.93361 C 488.98846,345.93361 485.71429,347.51371 485.71429,342.36218 C 485.71429,338.65559 485,334.9507 485,330.93361 C 485,325.63677 485.38269,325.21933 480,325.21933 C 474.83899,325.21933 474.32509,327.40156 470,323.07647 z"
       id="path2461" />
    <path
       style="fill:none;fill-rule:evenodd;stroke:#000000;stroke-width:1px;stroke-linecap:butt;stroke-linejoin:miter;stroke-opacity:1"
       d="M 508.57143,323.79075 C 503.31173,323.79075 509.09626,334.62153 507.14286,339.50504 C 505.00746,344.84354 505.71429,350.94228 505.71429,356.6479 C 505.71429,357.86529 515.33181,357.36218 516.42857,357.36218 C 521.82091,357.36218 527.61515,356.76597 532.85714,358.07647 C 539.10046,359.6373 539.35504,356.57857 540,355.93361 C 542.09935,353.83426 538.94164,345.95976 538.57143,345.21933 C 537.66003,343.39652 529.10909,344.50504 527.14286,344.50504 C 522.36632,344.50504 519.28571,345.84068 519.28571,340.21933 C 519.28571,335.93361 519.28571,331.6479 519.28571,327.36218 C 519.28571,321.93966 518.83007,322.36218 513.57143,322.36218 C 510.86068,322.36218 512.58499,322.18533 508.57143,323.79075 z"
       id="path2463" />
    <path
       style="fill:none;fill-rule:evenodd;stroke:#000000;stroke-width:1px;stroke-linecap:butt;stroke-linejoin:miter;stroke-opacity:1"
       d="M 546.42857,325.21933 C 545.89677,325.21933 547.14286,345.01096 547.14286,346.6479 C 547.14286,352.35748 542.53637,358.79075 548.57143,358.79075 C 553.20424,358.79075 555.97721,359.24212 558.57143,356.6479 C 560.25912,354.9602 559.28571,345.08115 559.28571,340.21933 C 559.28571,333.88821 553.57143,330.64075 553.57143,325.21933 C 553.57143,319.55138 555.34577,318.79075 550,318.79075 C 543.78466,318.79075 546.57049,324.79358 545,329.50504"
       id="path2465" />
    <path
       style="fill:none;fill-rule:evenodd;stroke:#000000;stroke-width:1px;stroke-linecap:butt;stroke-linejoin:miter;stroke-opacity:1"
       d="M 606.42857,353.79075 C 604.51312,349.95984 601.74668,340.93361 597.14286,340.93361 C 591.2846,340.93361 591.86188,337.11337 590,336.6479 C 587.54458,336.03404 581.8303,332.26175 584.28571,331.6479 C 588.03122,330.71152 592.26288,330.93361 596.42857,330.93361 C 601.13797,330.93361 605.75115,327.36218 607.14286,327.36218 C 610.76942,327.36218 600.38655,324.69831 597.14286,323.07647 C 593.02848,321.01928 595.10712,315.93361 590,315.93361 C 585.95238,315.93361 581.90476,315.93361 577.85714,315.93361 C 571.63606,315.93361 561.64988,325.6116 562.85714,331.6479 C 563.55848,335.15461 562.85714,339.48031 562.85714,343.07647 C 562.85714,346.92182 568.2314,352.99146 571.42857,353.79075 C 583.31814,356.76315 582.74482,366.06774 595.71429,362.36218 C 602.21501,360.50483 598.91255,360.96565 601.42857,355.93361 C 601.66667,355.45742 601.90476,354.98123 602.14286,354.50504"
       id="path2467" />
    <path
       style="fill:none;fill-rule:evenodd;stroke:#000000;stroke-width:1px;stroke-linecap:butt;stroke-linejoin:miter;stroke-opacity:1"
       d="M 620.71429,364.50504 C 620.56238,362.64854 620,354.39846 620,348.07647 C 620,339.00225 621.30406,333.75798 620,325.93361 C 619.2673,321.53742 620.71429,315.26629 620.71429,312.36218 C 619.74204,306.52867 611.25474,287.18835 607.85714,283.79075 C 604.25411,280.18772 617.26437,288.77762 620,293.07647 C 625.55396,301.80412 631.47187,313.11977 637.85714,319.50504 C 638.46417,320.11207 638.80952,320.93361 639.28571,321.6479 C 644.83104,329.96588 665.43239,345.07838 674.28571,349.50504 C 677.3471,351.03573 681.46749,358.62191 676.42857,357.36218 C 671.98375,356.25098 668.05622,354.91195 663.57143,353.79075 C 660.20533,352.94923 656.98799,350.85618 654.28571,349.50504 C 652.08614,348.40525 644.37111,339.84663 646.42857,348.07647 C 648.27101,355.44622 651.9244,362.47427 655.71429,368.79075 C 659.35802,374.86364 662.91263,380.98909 667.85714,385.93361 C 674.05617,392.13264 678.38483,400.20648 682.85714,407.36218 C 687.3402,414.53507 694.28571,423.14841 694.28571,427.36218 C 694.28571,430.03875 680.2173,424.72234 679.28571,423.79075 C 675.92865,420.43369 667.20341,420.99417 662.85714,416.6479 C 658.51417,412.30493 655.3248,410.15465 652.85714,405.21933 C 650.57387,400.65278 645.95342,398.3156 642.85714,395.21933 C 639.59207,391.95425 642.67202,392.36218 647.85714,392.36218 C 651.26922,392.36218 655.52599,392.49368 657.85714,393.07647 C 660.63859,393.77183 652.12393,390.14363 651.42857,387.36218 C 650.69054,384.41007 648.70667,381.20409 647.14286,378.07647 C 645.27326,374.33728 644.83928,370.24313 642.14286,366.6479 C 640.1687,364.01569 637.30301,364.50504 634.28571,364.50504 C 630.71429,364.50504 634.28571,371.6479 634.28571,375.21933 C 634.28571,380.92588 631.83447,379.91093 629.28571,377.36218 C 628.57143,376.6479 627.85714,375.93361 627.14286,375.21933 C 625.19642,373.27289 625.49335,369.06316 624.28571,366.6479 C 623.66484,365.40615 621.90476,365.21933 620.71429,364.50504 z"
       id="path2469" />
    <path
       style="fill:none;fill-rule:evenodd;stroke:#000000;stroke-width:1px;stroke-linecap:butt;stroke-linejoin:miter;stroke-opacity:1"
       d="M 632.14286,335.93361 C 630.4095,332.46689 632.55235,343.89546 634.28571,347.36218 C 634.31184,347.41443 644.5168,348.66995 636.42857,346.6479 C 632.88045,345.76087 633.33078,338.90341 632.14286,335.93361 z"
       id="path2471" />
  </g>
</svg>
