<?xml version="1.0" encoding="UTF-8" standalone="no"?>
<!-- Created with Inkscape (http://www.inkscape.org/) -->
<svg
   xmlns:dc="http://purl.org/dc/elements/1.1/"
   xmlns:cc="http://creativecommons.org/ns#"
   xmlns:rdf="http://www.w3.org/1999/02/22-rdf-syntax-ns#"
   xmlns:svg="http://www.w3.org/2000/svg"
   xmlns="http://www.w3.org/2000/svg"
   xmlns:sodipodi="http://sodipodi.sourceforge.net/DTD/sodipodi-0.dtd"
   xmlns:inkscape="http://www.inkscape.org/namespaces/inkscape"
   width="210mm"
   height="297mm"
   id="svg2417"
   sodipodi:version="0.32"
   inkscape:version="0.46"
   sodipodi:docname="smilley.svg"
   inkscape:output_extension="org.inkscape.output.svg.inkscape">
  <defs
     id="defs2419">
    <inkscape:perspective
       sodipodi:type="inkscape:persp3d"
       inkscape:vp_x="0 : 526.18109 : 1"
       inkscape:vp_y="0 : 1000 : 0"
       inkscape:vp_z="744.09448 : 526.18109 : 1"
       inkscape:persp3d-origin="372.04724 : 350.78739 : 1"
       id="perspective2425" />
  </defs>
  <sodipodi:namedview
     id="base"
     pagecolor="#ffffff"
     bordercolor="#666666"
     borderopacity="1.0"
     inkscape:pageopacity="0.0"
     inkscape:pageshadow="2"
     inkscape:zoom="0.7"
     inkscape:cx="455.85182"
     inkscape:cy="484.30926"
     inkscape:document-units="px"
     inkscape:current-layer="layer1"
     showgrid="false"
     inkscape:window-width="772"
     inkscape:window-height="1065"
     inkscape:window-x="2027"
     inkscape:window-y="57" />
  <metadata
     id="metadata2422">
    <rdf:RDF>
      <cc:Work
         rdf:about="">
        <dc:format>image/svg+xml</dc:format>
        <dc:type
           rdf:resource="http://purl.org/dc/dcmitype/StillImage" />
      </cc:Work>
    </rdf:RDF>
  </metadata>
  <g
     inkscape:label="Calque 1"
     inkscape:groupmode="layer"
     id="layer1">
    <path
       style="fill:none;fill-rule:evenodd;stroke:#000000;stroke-width:1px;stroke-linecap:butt;stroke-linejoin:miter;stroke-opacity:1"
       d="M 341.42857,636.6479 C 337.2505,637.66733 326.97357,636.56325 321.42857,633.79075 C 309.46689,627.80991 298.37079,618.21827 291.42857,606.6479 C 287.02722,599.31231 251.74016,579.94008 244.28571,578.07647 C 233.35103,575.3428 223.71328,565.6474 214.28571,560.93361 C 197.69298,552.63724 191.85708,529.93355 178.57143,516.6479 C 158.78784,496.86431 154.28571,460.33759 154.28571,433.79075 C 154.28571,397.48275 154.1021,363.09662 162.85714,328.07647 C 169.01289,303.45346 183.46975,287.05546 195.71429,266.6479 C 204.93856,251.2741 236.00652,248.45525 250,243.79075 C 285.21292,232.05311 335.18386,253.79075 371.42857,253.79075 C 409.97595,253.79075 447.66656,267.49311 484.28571,276.6479 C 512.56087,283.71669 539.33382,302.93398 561.42857,319.50504 C 585.72808,337.72967 594.28571,380.03041 594.28571,408.07647 C 594.28571,453.83977 599.22676,494.91769 592.85714,539.50504 C 586.75324,582.23236 565.02102,593.05545 537.14286,620.93361 C 522.84509,635.23137 482.39261,643.79075 462.85714,643.79075 C 442.42077,643.79075 423.13576,646.6479 402.85714,646.6479 C 391.49773,646.6479 384.45435,642.36218 372.85714,642.36218 C 364.55749,642.36218 357.25302,640.93361 348.57143,640.93361 C 343.95047,640.93361 335.96793,632.09736 332.85714,629.50504"
       id="path2384" />
    <path
       style="fill:none;fill-rule:evenodd;stroke:#000000;stroke-width:1px;stroke-linecap:butt;stroke-linejoin:miter;stroke-opacity:1"
       d="M 221.42857,463.79075 C 211.32705,463.79075 235.71429,478.07647 242.85714,485.21933 C 258.86339,501.22557 352.65907,538.32257 380,543.79075 C 404.15585,548.62192 433.9643,543.79075 458.57143,543.79075 C 479.64661,543.79075 516.77625,525.22473 534.28571,515.21933 C 536.35296,514.03804 538.09524,512.36218 540,510.93361 C 546.34671,506.17358 551.42857,492.33788 551.42857,485.21933"
       id="path2386" />
    <path
       style="fill:none;fill-rule:evenodd;stroke:#000000;stroke-width:1px;stroke-linecap:butt;stroke-linejoin:miter;stroke-opacity:1"
       d="M 277.14286,329.50504 C 282.53034,325.46443 264.49046,337.25747 262.85714,343.79075 C 259.51594,357.15557 277.95228,367.05261 288.57143,372.36218 C 297.02989,376.59141 306.4813,363.6853 308.57143,359.50504 C 311.09595,354.456 308.24684,341.06384 307.14286,336.6479 C 304.12466,324.57512 306.8271,323.79075 292.85714,323.79075 C 284.67057,323.79075 285.10639,324.72692 277.14286,329.50504 z"
       id="path2388" />
    <path
       style="fill:none;fill-rule:evenodd;stroke:#000000;stroke-width:1px;stroke-linecap:butt;stroke-linejoin:miter;stroke-opacity:1"
       d="M 470,356.6479 C 460.02677,356.6479 451.74715,361.94903 440,366.6479 C 425.94812,372.26865 425.2686,396.52984 432.85714,406.6479 C 443.51715,420.86124 446.54954,419.50504 464.28571,419.50504 C 474.79282,419.50504 485.24529,407.58589 488.57143,400.93361 C 492.23229,393.61189 488.40777,377.91281 484.28571,373.79075 C 478.04477,367.54981 476.00707,364.65732 470,356.6479 z"
       id="path2390" />
    <path
       style="fill:none;fill-rule:evenodd;stroke:#000000;stroke-width:1px;stroke-linecap:butt;stroke-linejoin:miter;stroke-opacity:1"
       d="M 220,472.36218 C 219.33249,471.69467 234.28571,488.72584 234.28571,505.21933 C 234.28571,517.97967 291.45615,556.67548 302.85714,568.07647 C 324.72612,589.94545 358.58948,590.93361 387.14286,590.93361 C 410.45231,590.93361 430.81183,584.81341 450,575.21933 C 460.91479,569.76193 471.85714,563.2479 482.85714,556.6479 C 492.50937,550.85656 501.40151,546.67496 508.57143,539.50504 C 513.26654,534.80993 520.17421,529.01724 527.14286,523.79075 C 533.93039,518.7001 542.78853,516.69936 548.57143,512.36218 C 554.22629,508.12104 552.85714,503.01745 552.85714,496.6479"
       id="path2392" />
    <path
       style="fill:none;fill-rule:evenodd;stroke:#000000;stroke-width:1px;stroke-linecap:butt;stroke-linejoin:miter;stroke-opacity:1"
       d="M 324.28571,150.93361 C 342.33535,154.00623 372.50806,148.07647 394.28571,148.07647 C 424.14756,148.07647 484.51738,139.03069 512.85714,130.93361 C 528.81479,126.37428 540.23505,108.91742 545.71429,95.219325 C 552.15605,79.114918 545.57525,45.968369 525.71429,50.933611 C 499.19456,57.563543 484.29776,52.3381 471.42857,78.076468 C 458.12483,104.68396 451.6547,130.03267 464.28571,159.50504 C 467.31617,166.57611 470,173.79075 472.85714,180.93361 C 484.77239,210.72173 505.21469,239.50504 541.42857,239.50504 C 569.31114,239.50504 630.6062,255.47896 650,240.93361"
       id="path2416" />
  </g>
</svg>
