<?xml version="1.0" encoding="UTF-8" standalone="no"?>
<!-- Created with Inkscape (http://www.inkscape.org/) -->
<svg
   xmlns:dc="http://purl.org/dc/elements/1.1/"
   xmlns:cc="http://creativecommons.org/ns#"
   xmlns:rdf="http://www.w3.org/1999/02/22-rdf-syntax-ns#"
   xmlns:svg="http://www.w3.org/2000/svg"
   xmlns="http://www.w3.org/2000/svg"
   xmlns:sodipodi="http://sodipodi.sourceforge.net/DTD/sodipodi-0.dtd"
   xmlns:inkscape="http://www.inkscape.org/namespaces/inkscape"
   width="210mm"
   height="297mm"
   id="svg2417"
   sodipodi:version="0.32"
   inkscape:version="0.46"
   sodipodi:docname="blop.svg"
   inkscape:output_extension="org.inkscape.output.svg.inkscape">
  <defs
     id="defs2419">
    <inkscape:perspective
       sodipodi:type="inkscape:persp3d"
       inkscape:vp_x="0 : 526.18109 : 1"
       inkscape:vp_y="0 : 1000 : 0"
       inkscape:vp_z="744.09448 : 526.18109 : 1"
       inkscape:persp3d-origin="372.04724 : 350.78739 : 1"
       id="perspective2425" />
  </defs>
  <sodipodi:namedview
     id="base"
     pagecolor="#ffffff"
     bordercolor="#666666"
     borderopacity="1.0"
     inkscape:pageopacity="0.0"
     inkscape:pageshadow="2"
     inkscape:zoom="0.35"
     inkscape:cx="375"
     inkscape:cy="520"
     inkscape:document-units="px"
     inkscape:current-layer="layer1"
     showgrid="false"
     inkscape:window-width="1920"
     inkscape:window-height="1144"
     inkscape:window-x="-4"
     inkscape:window-y="-4" />
  <metadata
     id="metadata2422">
    <rdf:RDF>
      <cc:Work
         rdf:about="">
        <dc:format>image/svg+xml</dc:format>
        <dc:type
           rdf:resource="http://purl.org/dc/dcmitype/StillImage" />
      </cc:Work>
    </rdf:RDF>
  </metadata>
  <g
     inkscape:label="Calque 1"
     inkscape:groupmode="layer"
     id="layer1">
    <path
       style="fill:none;fill-rule:evenodd;stroke:#000000;stroke-width:1px;stroke-linecap:butt;stroke-linejoin:miter;stroke-opacity:1"
       d="M 142.85714,718.07647 C 152.77227,640.65278 133.39788,540.83132 108.57143,458.07647 C 95.581946,414.77819 85.108299,345.55112 114.28571,306.6479 C 117.76158,302.01341 102.85714,308.55266 97.142857,309.50504 C 88.28036,310.98212 112.38095,299.98123 120,295.21933 C 176.99303,259.59868 287.98073,430.49375 294.28571,480.93361 C 298.94021,518.16957 277.14286,652.92807 277.14286,706.6479 C 277.14286,784.29737 300.19403,869.96005 320,858.07647 C 344.87217,843.15317 302.85714,608.19285 302.85714,560.93361 C 302.85714,519.91268 317.12033,490.46493 354.28571,478.07647 C 356.38419,477.37698 444.27948,476.2892 474.28571,483.79075 C 511.12542,493.00068 549.78072,618.40862 557.14286,655.21933 C 564.77936,693.40182 555.47156,755.54296 534.28571,783.79075 C 515.09712,809.37555 511.42857,832.73203 511.42857,863.79075 C 511.42857,885.69317 533.45535,899.86396 554.28571,912.36218 C 573.16862,923.69192 605.20671,928.20336 622.85714,923.79075"
       id="path2427" />
  </g>
</svg>
