<?xml version="1.0" encoding="UTF-8" standalone="no"?>
<!-- Created with Inkscape (http://www.inkscape.org/) -->
<svg
   xmlns:dc="http://purl.org/dc/elements/1.1/"
   xmlns:cc="http://creativecommons.org/ns#"
   xmlns:rdf="http://www.w3.org/1999/02/22-rdf-syntax-ns#"
   xmlns:svg="http://www.w3.org/2000/svg"
   xmlns="http://www.w3.org/2000/svg"
   xmlns:sodipodi="http://sodipodi.sourceforge.net/DTD/sodipodi-0.dtd"
   xmlns:inkscape="http://www.inkscape.org/namespaces/inkscape"
   width="210mm"
   height="297mm"
   id="svg2385"
   sodipodi:version="0.32"
   inkscape:version="0.46"
   sodipodi:docname="Monika Art.svg"
   inkscape:output_extension="org.inkscape.output.svg.inkscape">
  <defs
     id="defs2387">
    <inkscape:perspective
       sodipodi:type="inkscape:persp3d"
       inkscape:vp_x="0 : 526.18109 : 1"
       inkscape:vp_y="0 : 1000 : 0"
       inkscape:vp_z="744.09448 : 526.18109 : 1"
       inkscape:persp3d-origin="372.04724 : 350.78739 : 1"
       id="perspective2393" />
  </defs>
  <sodipodi:namedview
     id="base"
     pagecolor="#ffffff"
     bordercolor="#666666"
     borderopacity="1.0"
     inkscape:pageopacity="0.0"
     inkscape:pageshadow="2"
     inkscape:zoom="0.7"
     inkscape:cx="491.42305"
     inkscape:cy="441.92352"
     inkscape:document-units="px"
     inkscape:current-layer="layer1"
     showgrid="false"
     inkscape:window-width="1920"
     inkscape:window-height="1144"
     inkscape:window-x="-4"
     inkscape:window-y="-4" />
  <metadata
     id="metadata2390">
    <rdf:RDF>
      <cc:Work
         rdf:about="">
        <dc:format>image/svg+xml</dc:format>
        <dc:type
           rdf:resource="http://purl.org/dc/dcmitype/StillImage" />
      </cc:Work>
    </rdf:RDF>
  </metadata>
  <g
     inkscape:label="Calque 1"
     inkscape:groupmode="layer"
     id="layer1">
    <path
       style="fill:none;fill-rule:evenodd;stroke:#000000;stroke-width:1px;stroke-linecap:butt;stroke-linejoin:miter;stroke-opacity:1"
       d="M 215.71429,600.93361 C 213.91136,603.62621 214.28571,616.43092 214.28571,623.79075 C 214.28571,630.93361 214.28571,638.07647 214.28571,645.21933 C 214.28571,653.54655 215.71429,661.0566 215.71429,669.50504 C 215.71429,677.60028 215.71429,685.69552 215.71429,693.79075 C 215.71429,700.93361 215.71429,708.07647 215.71429,715.21933 C 215.71429,738.78639 214.38765,760.67876 205.71429,782.36218 C 203.13727,788.80473 206.14494,803.51755 207.14286,809.50504 C 208.47646,817.50663 207.14286,827.16169 207.14286,835.21933 C 207.14286,837.12409 207.14286,839.02885 207.14286,840.93361"
       id="path2395" />
    <path
       style="fill:none;fill-rule:evenodd;stroke:#000000;stroke-width:1px;stroke-linecap:butt;stroke-linejoin:miter;stroke-opacity:1"
       d="M 485.71429,618.07647 C 485.71429,630.01801 499.31567,649.21175 480,640.93361 C 469.93317,636.61926 480,662.83837 480,673.79075 C 480,684.72049 484.28571,699.33399 484.28571,708.07647 C 484.28571,722.91442 490.45035,739.34999 492.85714,753.79075 C 494.56692,764.04941 496.77748,774.48857 501.42857,783.79075 C 508.18696,797.30754 514.7023,810.33822 521.42857,823.79075 C 525.46156,831.85672 530.90909,837.42711 532.85714,845.21933 C 534.24321,850.7636 535.21336,849.93177 537.14286,853.79075"
       id="path2397" />
    <path
       style="fill:none;fill-rule:evenodd;stroke:#000000;stroke-width:1px;stroke-linecap:butt;stroke-linejoin:miter;stroke-opacity:1"
       d="M 604.28571,592.36218 C 601.44684,591.88904 598.62552,591.41882 595.71429,590.93361 C 585.09135,589.16312 577.60025,589.1338 568.57143,582.36218 C 554.97186,572.16251 543.96752,559.25048 530,548.07647 C 516.41826,537.21107 506.94712,520.73787 494.28571,508.07647 C 485.13444,498.92519 483.97542,491.74159 477.14286,478.07647 C 472.60321,468.99718 462.56602,460.64248 454.28571,452.36218 C 441.94104,440.0175 424.89951,432.97597 412.85714,420.93361 C 404.79308,412.86954 391.68185,397.48882 381.42857,392.36218 C 366.80866,385.05223 347.91276,374.71707 331.42857,372.36218 C 328.09524,371.88599 324.79575,370.93361 321.42857,370.93361 C 301.80328,370.93361 257.61249,365.12934 241.42857,378.07647 C 226.25666,390.214 219.20058,402.53245 210,420.93361 C 197.13612,446.66137 189.26832,480.23672 168.57143,500.93361 C 155.24633,514.25871 154.18307,530.70477 141.42857,546.6479 C 134.16631,555.72572 124.24812,586.49751 121.42857,575.21933 C 129.89641,576.63064 123.92974,593.43478 130,599.50504 C 137.37391,606.87895 140.2878,609.93413 150,612.36218 C 159.57457,614.75583 125.53966,578.34893 157.14286,615.21933 C 165.19095,624.60877 185.25386,627.10833 192.85714,619.50504 C 202.35553,610.00665 203.84753,609.82919 207.14286,596.6479 C 208.35071,591.8165 218.71551,609.64912 221.42857,612.36218 C 230.09098,621.02459 233.68469,622.81341 245.71429,625.21933 C 253.20191,626.71685 262.93647,628.07647 270,628.07647 C 280.47619,628.07647 290.95238,628.07647 301.42857,628.07647 C 314.18482,628.07647 326.47346,625.21933 340,625.21933 C 351.80557,625.21933 366.15166,623.79075 378.57143,623.79075 C 388.67941,623.79075 399.20475,625.7348 408.57143,628.07647 C 419.52688,630.81533 431.89715,637.28028 442.85714,640.93361 C 450.75961,643.56777 456.8352,631.80173 464.28571,628.07647 C 471.45397,624.49234 485.02397,626.6479 492.85714,626.6479 C 502.97242,626.6479 512.64287,625.16576 524.28571,628.07647 C 534.2388,630.56474 546.76222,628.07647 557.14286,628.07647 C 569.1052,628.07647 577.12107,627.37308 584.28571,623.79075 C 592.45098,619.70812 591.42857,617.78201 591.42857,608.07647 C 591.42857,598.04927 591.06502,594.58952 584.28571,589.50504 C 572.1625,580.41263 554.7298,572.80627 544.28571,562.36218 C 542.60213,560.67859 540.47619,559.50504 538.57143,558.07647 C 531.65996,552.89286 522.76385,551.80941 512.85714,553.79075 C 501.20997,556.12019 487.76523,556.6479 475.71429,556.6479 C 462.81139,556.6479 451.1246,557.79532 438.57143,560.93361 C 426.93787,563.842 410.63451,563.79075 398.57143,563.79075 C 385.19235,563.79075 371.53978,562.69238 360,558.07647 C 349.3566,553.81911 333.61338,548.07647 321.42857,548.07647 C 308.89097,548.07647 299.14677,542.36218 285.71429,542.36218 C 273.80952,542.36218 261.90476,542.36218 250,542.36218 C 240.17985,542.36218 231.04583,543.79075 221.42857,543.79075 C 210.95359,543.79075 205.06117,545.73975 195.71429,548.07647 C 187.91691,550.02581 181.77948,550.5827 175.71429,556.6479 C 169.56666,562.79552 162.52791,564.11999 155.71429,570.93361 C 149.1364,577.51149 139.17845,576.6479 130,576.6479 C 125.17947,576.6479 128.0668,576.87888 121.42857,575.21933"
       id="path2399" />
    <path
       style="fill:none;fill-rule:evenodd;stroke:#000000;stroke-width:1px;stroke-linecap:butt;stroke-linejoin:miter;stroke-opacity:1"
       d="M 211.42857,416.6479 C 203.11226,416.6479 217.14286,432.6173 217.14286,440.93361 C 217.14286,449.25455 221.42857,457.65214 221.42857,466.6479 C 221.42857,476.5732 218.97398,476.19012 211.42857,478.07647 C 203.89149,479.96074 201.65331,483.79075 192.85714,483.79075 C 189.24402,483.79075 184.71726,486.6479 180,486.6479"
       id="path2401" />
    <path
       style="fill:none;fill-rule:evenodd;stroke:#000000;stroke-width:1px;stroke-linecap:butt;stroke-linejoin:miter;stroke-opacity:1"
       d="M 254.28571,378.07647 C 254.11949,378.07647 265.59409,407.59568 267.14286,413.79075 C 270.58883,427.57463 272.05881,431.98401 280,445.21933 C 286.25335,455.64158 292.44982,459.76035 302.85714,462.36218 C 315.39929,465.49772 328.86219,464.5535 341.42857,466.6479 C 357.33205,469.29848 368.88442,459.34854 382.85714,452.36218 C 383.78434,451.89858 387.14286,430.66876 387.14286,428.07647 C 387.14286,420.93361 387.14286,413.79075 387.14286,406.6479"
       id="path2403" />
    <path
       style="fill:none;fill-rule:evenodd;stroke:#000000;stroke-width:1px;stroke-linecap:butt;stroke-linejoin:miter;stroke-opacity:1"
       d="M 424.28571,432.36218 C 424.28571,431.69748 415.71429,458.70114 415.71429,486.6479 C 415.71429,497.7637 415.911,510.2919 418.57143,520.93361 C 421.06401,530.90392 420.00065,536.17258 425.71429,543.79075 C 429.32841,548.60958 441.60865,546.6479 447.14286,546.6479 C 456.50253,546.6479 464.93339,539.89549 474.28571,535.21933 C 481.29055,531.71691 490.89407,526.6479 498.57143,526.6479 C 504.78019,526.6479 508.26233,535.14205 514.28571,536.6479 C 515.67163,536.99438 517.14286,536.6479 518.57143,536.6479"
       id="path2405" />
    <path
       style="fill:none;fill-rule:evenodd;stroke:#000000;stroke-width:1px;stroke-linecap:butt;stroke-linejoin:miter;stroke-opacity:1"
       d="M 257.14286,538.07647 C 257.14286,538.07647 257.14286,538.07647 257.14286,538.07647 z"
       id="path2407" />
    <path
       style="fill:none;fill-rule:evenodd;stroke:#000000;stroke-width:1px;stroke-linecap:butt;stroke-linejoin:miter;stroke-opacity:1"
       d="M 255.71429,543.79075 C 257.0917,544.13511 257.14286,522.76098 257.14286,516.6479 C 257.14286,508.64623 280.54546,509.50504 288.57143,509.50504 C 298.62401,509.50504 307.41917,511.20993 312.85714,516.6479 C 321.04335,524.83411 335.24613,528.40464 341.42857,536.6479 C 348.63833,546.26091 355.80152,548.83437 365.71429,553.79075 C 372.37138,557.1193 378.75259,560.3099 385.71429,563.79075"
       id="path2409" />
    <path
       style="fill:none;fill-rule:evenodd;stroke:#000000;stroke-width:1px;stroke-linecap:butt;stroke-linejoin:miter;stroke-opacity:1"
       d="M 308.57143,756.6479 C 310.82173,757.77305 308.57143,793.34044 308.57143,802.36218 C 308.57143,809.98123 308.57143,817.60028 308.57143,825.21933 C 308.57143,838.81758 311.42857,841.69044 311.42857,826.6479 C 311.42857,818.93063 312.85714,810.44055 312.85714,802.36218 C 312.85714,795.21933 312.85714,788.07647 312.85714,780.93361 C 312.85714,771.14925 313.45988,768.29957 317.14286,760.93361 C 322.09418,751.03097 322.39973,751.16232 334.28571,745.21933 C 342.83712,740.94362 357.58673,743.79075 367.14286,743.79075 C 377.88803,743.79075 383.10847,748.97925 391.42857,755.21933 C 393.89802,757.07141 392.85714,775.84119 392.85714,779.50504 C 392.85714,787.68662 394.28571,796.67424 394.28571,805.21933 C 394.28571,812.83793 395.71429,820.16062 395.71429,828.07647 C 395.71429,834.26694 395.71429,840.45742 395.71429,846.6479"
       id="path2411" />
    <path
       style="fill:none;fill-rule:evenodd;stroke:#000000;stroke-width:1px;stroke-linecap:butt;stroke-linejoin:miter;stroke-opacity:1"
       d="M 204.28571,845.21933 C 204.28571,852.69601 297.10895,865.21933 307.14286,865.21933 C 315.34719,865.21933 335.41957,853.93811 344.28571,849.50504 C 354.74183,844.27698 371.8679,846.6479 384.28571,846.6479 C 401.29081,846.6479 419.09252,848.20674 435.71429,852.36218 C 447.58695,855.33035 459.57722,853.68506 471.42857,856.6479 C 483.03202,859.54876 495.29112,858.56326 507.14286,860.93361 C 516.08554,862.72215 525.04983,862.36218 534.28571,862.36218 C 546.20651,862.36218 546.95117,866.8685 537.14286,853.79075"
       id="path2413" />
    <path
       style="fill:none;fill-rule:evenodd;stroke:#000000;stroke-width:1px;stroke-linecap:butt;stroke-linejoin:miter;stroke-opacity:1"
       d="M 248.57143,669.50504 C 256.19048,669.50504 248.57143,684.74313 248.57143,692.36218 C 248.57143,699.50504 248.57143,706.6479 248.57143,713.79075 C 248.57143,722.30709 253.43849,727.44105 260,732.36218 C 266.98726,737.60263 278.2034,739.50504 287.14286,739.50504 C 298.18406,739.50504 308.89674,742.4895 311.42857,732.36218 C 313.27145,724.99065 312.85714,717.31966 312.85714,709.50504 C 312.85714,701.7171 311.42857,695.48703 311.42857,688.07647 C 311.42857,680.71539 299.20585,673.39368 294.28571,670.93361 C 286.88251,667.23201 278.9404,668.07647 270,668.07647 C 260.31393,668.07647 257.77333,671.26886 255.71429,679.50504"
       id="path2415" />
    <path
       style="fill:none;fill-rule:evenodd;stroke:#000000;stroke-width:1px;stroke-linecap:butt;stroke-linejoin:miter;stroke-opacity:1"
       d="M 282.85714,675.21933 C 274.7619,675.21933 282.85714,691.4098 282.85714,699.50504 C 282.85714,706.6479 282.85714,713.79075 282.85714,720.93361 C 282.85714,724.26694 282.85714,727.60028 282.85714,730.93361"
       id="path2417" />
    <path
       style="fill:none;fill-rule:evenodd;stroke:#000000;stroke-width:1px;stroke-linecap:butt;stroke-linejoin:miter;stroke-opacity:1"
       d="M 248.57143,700.93361 C 248.57143,703.99564 284.93043,708.66011 290,709.50504 C 296.84105,710.64522 306.70878,709.02043 311.42857,708.07647"
       id="path2419" />
    <path
       style="fill:none;fill-rule:evenodd;stroke:#000000;stroke-width:1px;stroke-linecap:butt;stroke-linejoin:miter;stroke-opacity:1"
       d="M 514.28571,803.79075 C 520.83291,804.88195 562.00568,764.85508 568.57143,756.6479 C 572.44019,751.81194 569.20105,793.42745 578.57143,780.93361 C 584.19989,773.429 611.42857,754.40216 611.42857,765.21933 C 611.42857,775.20807 612.8911,794.69786 620,785.21933 C 631.55998,769.80601 655.71429,753.4391 655.71429,778.07647 C 655.71429,805.8143 658.80432,786.49264 675.71429,775.21933 C 690.20037,765.56194 681.79099,779.95807 675.71429,772.36218 C 674.82364,771.24888 689.49621,761.12253 701.42857,756.6479 C 714.92308,751.58746 703.18354,785.64742 707.14286,799.50504 C 708.06607,802.73628 717.48926,782.73723 722.85714,773.79075 C 726.78476,767.24473 724.28571,789.01398 724.28571,796.6479 C 724.28571,810.24322 730,822.78746 730,836.6479 C 730,849.01036 727.14286,855.58998 727.14286,865.21933 C 727.14286,874.50305 659.84732,867.57483 654.28571,866.6479 C 650.0323,865.93899 645.71429,865.69552 641.42857,865.21933 C 630.93284,864.05313 617.51706,852.45573 605.71429,849.50504 C 603.42594,848.93295 574.05965,858.35224 567.14286,859.50504 C 561.88126,860.38197 553.88786,856.6479 547.14286,856.6479"
       id="path2421" />
    <path
       style="fill:none;fill-rule:evenodd;stroke:#000000;stroke-width:1px;stroke-linecap:butt;stroke-linejoin:miter;stroke-opacity:1"
       d="M 565.71429,775.21933 C 554.28571,777.12409 569.52381,798.07647 571.42857,809.50504 C 572.67836,817.00375 580.06634,845.35201 571.42857,828.07647 C 569.80673,824.83278 574.83472,834.55819 575.71429,838.07647"
       id="path2423" />
    <path
       style="fill:none;fill-rule:evenodd;stroke:#000000;stroke-width:1px;stroke-linecap:butt;stroke-linejoin:miter;stroke-opacity:1"
       d="M 621.42857,798.07647 C 605.19171,765.60274 613.70555,812.2842 604.28571,805.21933 C 600.09706,802.07783 605.71429,825.25861 605.71429,829.50504 C 605.71429,830.45742 605.71429,831.4098 605.71429,832.36218"
       id="path2425" />
    <path
       style="fill:none;fill-rule:evenodd;stroke:#000000;stroke-width:1px;stroke-linecap:butt;stroke-linejoin:miter;stroke-opacity:1"
       d="M 662.85714,778.07647 C 662.85714,796.60937 662.85714,827.51204 662.85714,850.93361"
       id="path2427" />
    <path
       style="fill:none;fill-rule:evenodd;stroke:#000000;stroke-width:1px;stroke-linecap:butt;stroke-linejoin:miter;stroke-opacity:1"
       d="M 702.85714,798.07647 C 702.85714,807.59504 699.27755,834.89076 694.28571,852.36218"
       id="path2429" />
    <path
       style="fill:none;fill-rule:evenodd;stroke:#000000;stroke-width:1px;stroke-linecap:butt;stroke-linejoin:miter;stroke-opacity:1"
       d="M 470,56.647896 C 470,60.015072 463.33333,57.600277 460,58.076468 C 455.74791,58.683909 455.71429,98.718036 455.71429,105.21932 C 455.71429,123.37224 453.60581,143.24835 457.14286,160.93361 C 461.39278,182.18322 466.43264,199.87236 474.28571,219.50504 C 482.09352,239.02455 496.97909,257.95364 514.28571,270.93361 C 535.90499,287.14807 548.86091,293.8197 577.14286,296.6479 C 594.34801,298.36841 611.49003,299.50504 628.57143,299.50504 C 645.34123,299.50504 660.28555,300.36224 675.71429,295.21933 C 681.65618,293.23869 688.02241,292.36218 694.28571,292.36218"
       id="path2431" />
    <path
       style="fill:none;fill-rule:evenodd;stroke:#000000;stroke-width:1px;stroke-linecap:butt;stroke-linejoin:miter;stroke-opacity:1"
       d="M 394.28571,116.6479 C 427.42498,105.60148 356.55998,121.22187 338.57143,125.21932 C 270.49848,140.34665 202.24904,150.19809 134.28571,163.79075 C 130.05736,164.63642 142.85714,164.74313 147.14286,165.21933"
       id="path2433" />
    <path
       style="fill:none;fill-rule:evenodd;stroke:#000000;stroke-width:1px;stroke-linecap:butt;stroke-linejoin:miter;stroke-opacity:1"
       d="M 415.71429,193.79075 C 389.83955,198.9657 319.58414,236.89741 291.42857,253.79075"
       id="path2435" />
    <path
       style="fill:none;fill-rule:evenodd;stroke:#000000;stroke-width:1px;stroke-linecap:butt;stroke-linejoin:miter;stroke-opacity:1"
       d="M 461.42857,256.6479 C 459.20925,257.09176 437.58601,291.47588 434.28571,298.07647"
       id="path2437" />
    <path
       style="fill:none;fill-rule:evenodd;stroke:#000000;stroke-width:1px;stroke-linecap:butt;stroke-linejoin:miter;stroke-opacity:1"
       d="M 497.14286,319.50504 C 485.78164,321.77728 502.85714,342.20454 502.85714,353.79075 C 502.85714,372.12783 498.11715,401.45363 505.71429,416.6479"
       id="path2439" />
    <path
       style="fill:none;fill-rule:evenodd;stroke:#000000;stroke-width:1px;stroke-linecap:butt;stroke-linejoin:miter;stroke-opacity:1"
       d="M 571.42857,378.07647 C 571.42857,383.51466 592.58291,439.72613 595.71429,448.07647"
       id="path2441" />
    <path
       style="fill:none;fill-rule:evenodd;stroke:#000000;stroke-width:1px;stroke-linecap:butt;stroke-linejoin:miter;stroke-opacity:1"
       d="M 672.85714,378.07647 C 672.85714,381.48358 664.28571,384.2112 664.28571,409.50504 C 664.28571,460.8851 668.21608,514.31303 661.42857,565.21933"
       id="path2443" />
    <path
       style="fill:none;fill-rule:evenodd;stroke:#000000;stroke-width:1px;stroke-linecap:butt;stroke-linejoin:miter;stroke-opacity:1"
       d="M 625.71429,89.505039 C 625.71429,102.07683 600.31817,96.329727 591.42857,105.21932 C 583.30477,113.34313 576.27021,114.56484 588.57143,123.79075 C 600.06719,132.41257 617.14286,117.73592 617.14286,106.6479 C 617.14286,101.50699 616.69169,97.24921 615.71429,92.362182"
       id="path2445" />
    <path
       style="fill:none;fill-rule:evenodd;stroke:#000000;stroke-width:1px;stroke-linecap:butt;stroke-linejoin:miter;stroke-opacity:1"
       d="M 670,135.21932 C 670,126.12172 655.49714,147.08218 651.42857,155.21933 C 647.59442,162.88763 648.51697,171.99142 655.71429,173.79075 C 656.63823,174.02174 657.61905,173.79075 658.57143,173.79075 C 669.09771,173.79075 676.05711,165.07654 680,155.21933 C 682.75706,148.32668 679.40663,136.88972 677.14286,132.36218 C 676.66667,131.4098 676.19048,130.45742 675.71429,129.50504"
       id="path2447" />
    <path
       style="fill:none;fill-rule:evenodd;stroke:#000000;stroke-width:1px;stroke-linecap:butt;stroke-linejoin:miter;stroke-opacity:1"
       d="M 541.42857,126.6479 C 540.71831,125.22736 540.53362,144.85799 548.57143,160.93361 C 552.64046,169.07166 552.77974,176.53179 558.57143,185.21933 C 567.60076,198.76332 580.52418,208.2101 592.85714,218.07647 C 609.4255,231.33116 631.80576,236.12221 650,245.21933 C 661.17509,250.80687 671.30277,244.53649 680,242.36218 C 680.92395,242.1312 680,240.45742 680,239.50504"
       id="path2449" />
  </g>
</svg>
